<?xml version="1.0" encoding="UTF-8"?>
<svg xmlns="http://www.w3.org/2000/svg" xmlns:xlink="http://www.w3.org/1999/xlink" width="69px" height="69px" viewBox="0 0 69 69" version="1.1">
<g id="surface1">
<path style=" stroke:none;fill-rule:nonzero;fill:rgb(98.431373%,97.647059%,99.215686%);fill-opacity:1;" d="M 0 0 C 22.769531 0 45.539062 0 69 0 C 69 22.769531 69 45.539062 69 69 C 46.230469 69 23.460938 69 0 69 C 0 46.230469 0 23.460938 0 0 Z M 0 0 "/>
<path style=" stroke:none;fill-rule:nonzero;fill:rgb(98.823529%,88.627452%,52.156866%);fill-opacity:1;" d="M 11.675781 17.425781 C 12.882812 17.332031 14.085938 17.261719 15.292969 17.207031 C 16.300781 17.144531 16.300781 17.144531 17.328125 17.082031 C 19.109375 17.425781 19.109375 17.425781 20.109375 19.09375 C 20.304688 19.691406 20.5 20.292969 20.699219 20.910156 C 20.875 21.367188 21.050781 21.828125 21.230469 22.304688 C 36.730469 22.648438 36.730469 22.648438 52.546875 23 C 52.207031 26.542969 51.917969 29.421875 51.1875 32.757812 C 51.042969 33.417969 50.898438 34.078125 50.753906 34.761719 C 50.644531 35.25 50.535156 35.738281 50.421875 36.242188 C 52.175781 36.011719 53.925781 35.78125 55.730469 35.546875 C 56.429688 33.246094 57.132812 30.945312 57.855469 28.574219 C 58.378906 28.574219 58.90625 28.574219 59.445312 28.574219 C 58.574219 32.222656 57.648438 35.652344 56.261719 39.03125 C 56 38.339844 56 38.339844 55.730469 37.636719 C 53.277344 37.636719 50.828125 37.636719 48.300781 37.636719 C 47.949219 39.246094 47.597656 40.855469 47.238281 42.515625 C 46.886719 42.515625 46.539062 42.515625 46.175781 42.515625 C 46.175781 41.363281 46.175781 40.214844 46.175781 39.03125 C 45.71875 39.503906 45.71875 39.503906 45.25 39.988281 C 42.777344 42.332031 40.921875 42.710938 37.890625 42.652344 C 37.507812 42.648438 37.121094 42.648438 36.722656 42.644531 C 35.496094 42.636719 34.269531 42.621094 33.039062 42.601562 C 32.207031 42.59375 31.371094 42.589844 30.539062 42.582031 C 28.496094 42.566406 26.457031 42.542969 24.414062 42.515625 C 24.183594 41.839844 24.183594 41.839844 23.949219 41.148438 C 23.464844 39.601562 23.464844 39.601562 22.320312 39.300781 C 21.25 39.210938 20.179688 39.121094 19.109375 39.03125 C 18.84375 40.753906 18.84375 40.753906 18.578125 42.515625 C 18.226562 42.515625 17.875 42.515625 17.515625 42.515625 C 17.820312 37.839844 19.117188 34.132812 20.699219 29.96875 C 18.773438 29.96875 16.847656 29.96875 14.863281 29.96875 C 14.613281 31.132812 14.613281 31.132812 14.363281 32.320312 C 13.800781 34.847656 13.800781 34.847656 13.269531 36.242188 C 14.671875 36.242188 16.070312 36.242188 17.515625 36.242188 C 17.515625 36.703125 17.515625 37.164062 17.515625 37.636719 C 17.027344 37.675781 17.027344 37.675781 16.527344 37.714844 C 15.882812 37.785156 15.882812 37.785156 15.226562 37.855469 C 14.800781 37.894531 14.375 37.933594 13.9375 37.976562 C 12.546875 38.390625 12.042969 39 11.144531 40.425781 C 11.398438 35.902344 12.292969 32.660156 13.800781 28.574219 C 15.550781 28.574219 17.304688 28.574219 19.109375 28.574219 C 18.953125 28.089844 18.800781 27.601562 18.644531 27.101562 C 18.445312 26.464844 18.25 25.832031 18.046875 25.179688 C 17.847656 24.546875 17.652344 23.917969 17.449219 23.265625 C 16.984375 21.605469 16.984375 21.605469 16.984375 20.210938 C 15.058594 20.210938 13.132812 20.210938 11.144531 20.210938 C 11.320312 19.292969 11.496094 18.371094 11.675781 17.425781 Z M 11.675781 17.425781 "/>
<path style=" stroke:none;fill-rule:nonzero;fill:rgb(96.862745%,96.862745%,95.294118%);fill-opacity:1;" d="M 22.292969 25.789062 C 31.050781 25.789062 39.808594 25.789062 48.832031 25.789062 C 48.304688 28.316406 47.78125 30.847656 47.238281 33.453125 C 45.835938 33.222656 44.4375 32.996094 42.992188 32.757812 C 42.992188 31.835938 42.992188 30.917969 42.992188 29.96875 C 43.519531 29.96875 44.042969 29.96875 44.585938 29.96875 C 44.585938 30.429688 44.585938 30.890625 44.585938 31.363281 C 45.109375 31.363281 45.636719 31.363281 46.175781 31.363281 C 46.175781 30.671875 46.175781 29.984375 46.175781 29.273438 C 43.980469 29.125 43.980469 29.125 41.929688 29.96875 C 41.929688 30.890625 41.929688 31.808594 41.929688 32.757812 C 43.15625 33.449219 44.382812 34.136719 45.644531 34.847656 C 45.503906 37.148438 45.347656 38.070312 43.988281 39.597656 C 42.136719 40.601562 40.730469 40.625 38.746094 40.425781 C 38.214844 39.726562 38.214844 39.726562 38.082031 38.117188 C 38.238281 35.933594 38.714844 35.066406 39.808594 33.453125 C 38.425781 34.613281 38.425781 34.613281 37.152344 36.242188 C 36.90625 38.460938 37.140625 39.679688 37.683594 41.816406 C 36.984375 41.816406 36.285156 41.816406 35.5625 41.816406 C 35.5625 41.359375 35.5625 40.898438 35.5625 40.425781 C 33.460938 40.425781 31.359375 40.425781 29.191406 40.425781 C 29.191406 39.503906 29.191406 38.585938 29.191406 37.636719 C 31.292969 37.636719 33.394531 37.636719 35.5625 37.636719 C 35.5625 37.175781 35.5625 36.714844 35.5625 36.242188 C 33.808594 36.242188 32.058594 36.242188 30.253906 36.242188 C 30.71875 32.234375 30.71875 32.234375 31.316406 30.667969 C 33.765625 30.667969 36.21875 30.667969 38.746094 30.667969 C 38.746094 29.976562 38.746094 29.285156 38.746094 28.574219 C 36.117188 28.804688 33.492188 29.035156 30.785156 29.273438 C 30.269531 30.824219 29.753906 32.378906 29.226562 33.976562 C 29.0625 34.460938 28.902344 34.945312 28.734375 35.445312 C 28.046875 37.542969 27.410156 39.570312 27.070312 41.816406 C 26.71875 41.816406 26.367188 41.816406 26.007812 41.816406 C 25.65625 40.667969 25.308594 39.519531 24.945312 38.332031 C 25.375 37.972656 25.800781 37.613281 26.238281 37.246094 C 27.761719 35.644531 27.761719 35.644531 28.097656 33.019531 C 28.109375 32.242188 28.121094 31.464844 28.128906 30.667969 C 26.535156 28.570312 25.039062 28.859375 22.824219 28.574219 C 22.648438 27.65625 22.472656 26.734375 22.292969 25.789062 Z M 22.292969 25.789062 "/>
<path style=" stroke:none;fill-rule:nonzero;fill:rgb(82.352942%,81.568629%,49.019608%);fill-opacity:1;" d="M 14.863281 29.96875 C 16.789062 29.96875 18.714844 29.96875 20.699219 29.96875 C 19.636719 34.152344 18.578125 38.332031 17.515625 42.515625 C 17.867188 42.515625 18.214844 42.515625 18.578125 42.515625 C 18.753906 41.363281 18.925781 40.214844 19.109375 39.03125 C 22.320312 38.894531 22.320312 38.894531 23.355469 39.03125 C 24.414062 40.425781 24.414062 40.425781 24.414062 42.515625 C 26.824219 42.5 29.230469 42.464844 31.636719 42.410156 C 32.453125 42.394531 33.269531 42.382812 34.085938 42.378906 C 38.785156 42.351562 42.828125 42.296875 46.707031 38.332031 C 46.53125 39.714844 46.355469 41.09375 46.175781 42.515625 C 46.527344 42.515625 46.878906 42.515625 47.238281 42.515625 C 47.316406 41.96875 47.390625 41.421875 47.46875 40.859375 C 47.769531 39.03125 47.769531 39.03125 48.300781 37.636719 C 50.753906 37.636719 53.203125 37.636719 55.730469 37.636719 C 55.992188 39.707031 55.992188 39.707031 56.261719 41.816406 C 57.664062 41.816406 59.0625 41.816406 60.507812 41.816406 C 60.507812 42.277344 60.507812 42.738281 60.507812 43.210938 C 60.171875 43.230469 59.839844 43.246094 59.492188 43.265625 C 57.984375 43.34375 56.476562 43.429688 54.96875 43.515625 C 54.441406 43.542969 53.914062 43.570312 53.371094 43.601562 C 52.617188 43.644531 52.617188 43.644531 51.851562 43.6875 C 51.386719 43.714844 50.921875 43.738281 50.445312 43.765625 C 49.367188 43.757812 49.367188 43.757812 48.832031 44.605469 C 48.058594 44.699219 47.28125 44.746094 46.503906 44.769531 C 46.011719 44.789062 45.515625 44.808594 45.007812 44.828125 C 44.199219 44.851562 44.199219 44.851562 43.378906 44.875 C 42.828125 44.894531 42.28125 44.910156 41.714844 44.929688 C 40.550781 44.964844 39.382812 45 38.21875 45.03125 C 36.433594 45.085938 34.652344 45.148438 32.867188 45.210938 C 31.738281 45.246094 30.609375 45.277344 29.476562 45.3125 C 28.675781 45.339844 28.675781 45.339844 27.855469 45.371094 C 27.109375 45.390625 27.109375 45.390625 26.347656 45.410156 C 25.910156 45.421875 25.472656 45.433594 25.019531 45.449219 C 23.882812 45.304688 23.882812 45.304688 22.292969 43.910156 C 20.855469 43.652344 20.855469 43.652344 19.234375 43.621094 C 18.640625 43.59375 18.046875 43.566406 17.4375 43.539062 C 16.816406 43.515625 16.195312 43.496094 15.558594 43.472656 C 14.933594 43.445312 14.308594 43.417969 13.664062 43.390625 C 12.117188 43.324219 10.570312 43.265625 9.023438 43.210938 C 9.023438 42.753906 9.023438 42.292969 9.023438 41.816406 C 9.375 41.816406 9.722656 41.816406 10.085938 41.816406 C 10.261719 40.667969 10.433594 39.519531 10.617188 38.332031 C 10.964844 38.792969 11.316406 39.253906 11.675781 39.726562 C 12.027344 39.039062 12.378906 38.347656 12.738281 37.636719 C 13.886719 37.433594 13.886719 37.433594 15.191406 37.503906 C 15.628906 37.523438 16.0625 37.542969 16.507812 37.5625 C 16.839844 37.585938 17.171875 37.613281 17.515625 37.636719 C 17.515625 37.175781 17.515625 36.714844 17.515625 36.242188 C 16.113281 36.242188 14.714844 36.242188 13.269531 36.242188 C 13.792969 34.171875 14.320312 32.101562 14.863281 29.96875 Z M 14.863281 29.96875 "/>
<path style=" stroke:none;fill-rule:nonzero;fill:rgb(26.274511%,64.313728%,5.098039%);fill-opacity:1;" d="M 11.675781 17.425781 C 12.882812 17.332031 14.085938 17.261719 15.292969 17.207031 C 16.300781 17.144531 16.300781 17.144531 17.328125 17.082031 C 19.109375 17.425781 19.109375 17.425781 20.109375 19.09375 C 20.304688 19.691406 20.5 20.292969 20.699219 20.910156 C 20.875 21.367188 21.050781 21.828125 21.230469 22.304688 C 36.730469 22.648438 36.730469 22.648438 52.546875 23 C 52.371094 24.839844 52.195312 26.679688 52.015625 28.574219 C 51.609375 28.589844 51.207031 28.605469 50.789062 28.621094 C 49.140625 29.132812 49.140625 29.132812 48.398438 31.753906 C 48.085938 32.941406 48.085938 32.941406 47.769531 34.152344 C 47.238281 31.363281 47.238281 31.363281 48.832031 25.789062 C 40.074219 25.789062 31.316406 25.789062 22.292969 25.789062 C 22.46875 26.707031 22.644531 27.628906 22.824219 28.574219 C 23.492188 28.53125 24.160156 28.488281 24.847656 28.445312 C 26.914062 28.453125 26.914062 28.453125 28.128906 29.402344 C 28.824219 31.058594 28.777344 32.292969 28.660156 34.152344 C 28.3125 34.152344 27.960938 34.152344 27.601562 34.152344 C 27.601562 33.230469 27.601562 32.3125 27.601562 31.363281 C 25.671875 30.902344 23.746094 30.445312 21.761719 29.96875 C 21.585938 31.121094 21.410156 32.269531 21.230469 33.453125 C 20.878906 33.683594 20.53125 33.914062 20.167969 34.152344 C 20.34375 32.773438 20.519531 31.390625 20.699219 29.96875 C 18.773438 29.96875 16.847656 29.96875 14.863281 29.96875 C 14.613281 31.132812 14.613281 31.132812 14.363281 32.320312 C 13.800781 34.847656 13.800781 34.847656 13.269531 36.242188 C 14.671875 36.242188 16.070312 36.242188 17.515625 36.242188 C 17.515625 36.703125 17.515625 37.164062 17.515625 37.636719 C 17.027344 37.675781 17.027344 37.675781 16.527344 37.714844 C 15.882812 37.785156 15.882812 37.785156 15.226562 37.855469 C 14.800781 37.894531 14.375 37.933594 13.9375 37.976562 C 12.546875 38.390625 12.042969 39 11.144531 40.425781 C 11.398438 35.902344 12.292969 32.660156 13.800781 28.574219 C 15.550781 28.574219 17.304688 28.574219 19.109375 28.574219 C 18.953125 28.089844 18.800781 27.601562 18.644531 27.101562 C 18.445312 26.464844 18.25 25.832031 18.046875 25.179688 C 17.847656 24.546875 17.652344 23.917969 17.449219 23.265625 C 16.984375 21.605469 16.984375 21.605469 16.984375 20.210938 C 15.058594 20.210938 13.132812 20.210938 11.144531 20.210938 C 11.320312 19.292969 11.496094 18.371094 11.675781 17.425781 Z M 11.675781 17.425781 "/>
<path style=" stroke:none;fill-rule:nonzero;fill:rgb(90.980393%,83.529413%,26.666668%);fill-opacity:1;" d="M 44.683594 28.835938 C 45.175781 28.980469 45.667969 29.125 46.175781 29.273438 C 46.175781 29.960938 46.175781 30.652344 46.175781 31.363281 C 45.652344 31.363281 45.125 31.363281 44.585938 31.363281 C 44.585938 30.902344 44.585938 30.445312 44.585938 29.96875 C 44.058594 30.199219 43.535156 30.429688 42.992188 30.667969 C 42.992188 31.125 42.992188 31.585938 42.992188 32.0625 C 44.394531 32.519531 45.792969 32.980469 47.238281 33.453125 C 47.9375 31.84375 48.640625 30.234375 49.363281 28.574219 C 50.0625 28.574219 50.761719 28.574219 51.484375 28.574219 C 51.21875 31.1875 50.910156 33.683594 50.421875 36.242188 C 52.175781 36.011719 53.925781 35.78125 55.730469 35.546875 C 56.429688 33.246094 57.132812 30.945312 57.855469 28.574219 C 58.378906 28.574219 58.90625 28.574219 59.445312 28.574219 C 58.574219 32.222656 57.648438 35.652344 56.261719 39.03125 C 56 38.339844 56 38.339844 55.730469 37.636719 C 53.277344 37.636719 50.828125 37.636719 48.300781 37.636719 C 47.949219 39.246094 47.597656 40.855469 47.238281 42.515625 C 46.886719 42.515625 46.539062 42.515625 46.175781 42.515625 C 46.175781 41.363281 46.175781 40.214844 46.175781 39.03125 C 45.871094 39.347656 45.5625 39.664062 45.25 39.988281 C 43.253906 41.878906 41.792969 43 39.277344 42.515625 C 37.785156 41.339844 37.785156 41.339844 36.625 39.726562 C 36.324219 37.984375 36.324219 37.984375 36.625 36.242188 C 37.617188 34.628906 37.617188 34.628906 38.746094 33.453125 C 39.097656 33.453125 39.445312 33.453125 39.808594 33.453125 C 39.546875 34.035156 39.546875 34.035156 39.277344 34.628906 C 38.675781 36.453125 38.664062 37.761719 38.746094 39.726562 C 41.367188 39.929688 43.042969 39.875 45.117188 37.636719 C 45.582031 36.183594 45.582031 36.183594 45.644531 34.847656 C 44.421875 34.386719 43.195312 33.929688 41.929688 33.453125 C 41.753906 32.304688 41.582031 31.15625 41.398438 29.96875 C 42.992188 28.574219 42.992188 28.574219 44.683594 28.835938 Z M 44.683594 28.835938 "/>
<path style=" stroke:none;fill-rule:nonzero;fill:rgb(95.294118%,95.686275%,90.980393%);fill-opacity:1;" d="M 14.863281 29.96875 C 16.789062 29.96875 18.714844 29.96875 20.699219 29.96875 C 19.703125 34.164062 18.542969 37.933594 16.984375 41.816406 C 15.234375 41.816406 13.480469 41.816406 11.675781 41.816406 C 12.027344 40.4375 12.378906 39.058594 12.738281 37.636719 C 14.316406 37.636719 15.890625 37.636719 17.515625 37.636719 C 17.515625 37.175781 17.515625 36.714844 17.515625 36.242188 C 16.113281 36.242188 14.714844 36.242188 13.269531 36.242188 C 13.792969 34.171875 14.320312 32.101562 14.863281 29.96875 Z M 14.863281 29.96875 "/>
<path style=" stroke:none;fill-rule:nonzero;fill:rgb(46.666667%,70.19608%,16.078432%);fill-opacity:1;" d="M 22.292969 27.183594 C 22.46875 27.640625 22.644531 28.101562 22.824219 28.574219 C 23.492188 28.53125 24.160156 28.488281 24.847656 28.445312 C 26.914062 28.453125 26.914062 28.453125 28.128906 29.402344 C 28.824219 31.058594 28.777344 32.292969 28.660156 34.152344 C 28.3125 34.152344 27.960938 34.152344 27.601562 34.152344 C 27.601562 33.230469 27.601562 32.3125 27.601562 31.363281 C 25.671875 30.902344 23.746094 30.445312 21.761719 29.96875 C 21.585938 31.121094 21.410156 32.269531 21.230469 33.453125 C 20.707031 33.800781 20.707031 33.800781 20.167969 34.152344 C 20.34375 32.773438 20.519531 31.390625 20.699219 29.96875 C 18.773438 29.96875 16.847656 29.96875 14.863281 29.96875 C 14.613281 31.132812 14.613281 31.132812 14.363281 32.320312 C 13.800781 34.847656 13.800781 34.847656 13.269531 36.242188 C 14.671875 36.242188 16.070312 36.242188 17.515625 36.242188 C 17.515625 36.703125 17.515625 37.164062 17.515625 37.636719 C 17.1875 37.664062 16.863281 37.6875 16.527344 37.714844 C 15.882812 37.785156 15.882812 37.785156 15.226562 37.855469 C 14.800781 37.894531 14.375 37.933594 13.9375 37.976562 C 12.546875 38.390625 12.042969 39 11.144531 40.425781 C 11.253906 38.511719 11.417969 36.730469 11.675781 34.847656 C 11.746094 34.28125 11.816406 33.714844 11.886719 33.128906 C 12.316406 31.089844 12.632812 30.058594 13.800781 28.574219 C 16.628906 27.59375 19.375 27.320312 22.292969 27.183594 Z M 22.292969 27.183594 "/>
<path style=" stroke:none;fill-rule:nonzero;fill:rgb(75.686276%,77.64706%,12.156863%);fill-opacity:1;" d="M 49.363281 28.574219 C 50.0625 28.574219 50.761719 28.574219 51.484375 28.574219 C 51.21875 31.1875 50.910156 33.683594 50.421875 36.242188 C 52.175781 36.011719 53.925781 35.78125 55.730469 35.546875 C 56.429688 33.246094 57.132812 30.945312 57.855469 28.574219 C 58.378906 28.574219 58.90625 28.574219 59.445312 28.574219 C 58.574219 32.222656 57.648438 35.652344 56.261719 39.03125 C 56.085938 38.570312 55.910156 38.109375 55.730469 37.636719 C 52.929688 37.636719 50.125 37.636719 47.238281 37.636719 C 47.667969 33.691406 47.960938 31.855469 49.363281 28.574219 Z M 49.363281 28.574219 "/>
<path style=" stroke:none;fill-rule:nonzero;fill:rgb(45.882353%,61.56863%,10.980392%);fill-opacity:1;" d="M 22.824219 43.210938 C 31.40625 43.210938 39.988281 43.210938 48.832031 43.210938 C 48.832031 43.671875 48.832031 44.132812 48.832031 44.605469 C 45.296875 44.722656 41.765625 44.835938 38.230469 44.941406 C 37.027344 44.980469 35.824219 45.019531 34.621094 45.058594 C 32.898438 45.113281 31.171875 45.167969 29.445312 45.21875 C 28.636719 45.246094 28.636719 45.246094 27.808594 45.277344 C 27.058594 45.296875 27.058594 45.296875 26.296875 45.316406 C 25.855469 45.332031 25.414062 45.347656 24.960938 45.359375 C 23.882812 45.304688 23.882812 45.304688 22.824219 44.605469 C 22.824219 44.144531 22.824219 43.6875 22.824219 43.210938 Z M 22.824219 43.210938 "/>
<path style=" stroke:none;fill-rule:nonzero;fill:rgb(95.686275%,95.686275%,91.37255%);fill-opacity:1;" d="M 21.761719 29.96875 C 24.976562 29.832031 24.976562 29.832031 26.007812 29.96875 C 27.070312 31.363281 27.070312 31.363281 27.335938 33.019531 C 27.070312 34.847656 27.070312 34.847656 25.710938 36.460938 C 23.683594 37.765625 22.394531 37.871094 20.167969 37.636719 C 20.640625 35.058594 21.203125 32.515625 21.761719 29.96875 Z M 21.761719 29.96875 "/>
<path style=" stroke:none;fill-rule:nonzero;fill:rgb(98.431373%,90.588236%,63.529414%);fill-opacity:1;" d="M 10.617188 38.332031 C 11.140625 38.792969 11.667969 39.253906 12.207031 39.726562 C 12.207031 40.1875 12.207031 40.648438 12.207031 41.121094 C 13.960938 41.121094 15.710938 41.121094 17.515625 41.121094 C 17.515625 41.582031 17.515625 42.042969 17.515625 42.515625 C 17.867188 42.515625 18.214844 42.515625 18.578125 42.515625 C 18.753906 41.363281 18.925781 40.214844 19.109375 39.03125 C 22.320312 38.894531 22.320312 38.894531 23.355469 39.03125 C 24.414062 40.425781 24.414062 40.425781 24.414062 42.515625 C 22.640625 43.21875 21.03125 43.292969 19.183594 43.28125 C 18.589844 43.277344 18 43.277344 17.390625 43.273438 C 16.773438 43.265625 16.160156 43.261719 15.523438 43.253906 C 14.902344 43.253906 14.277344 43.25 13.636719 43.246094 C 12.097656 43.238281 10.5625 43.226562 9.023438 43.210938 C 9.023438 42.753906 9.023438 42.292969 9.023438 41.816406 C 9.375 41.816406 9.722656 41.816406 10.085938 41.816406 C 10.261719 40.667969 10.433594 39.519531 10.617188 38.332031 Z M 10.617188 38.332031 "/>
<path style=" stroke:none;fill-rule:nonzero;fill:rgb(60.784316%,62.352943%,7.843138%);fill-opacity:1;" d="M 46.707031 46.695312 C 47.234375 47.15625 47.757812 47.617188 48.300781 48.089844 C 48.101562 49.789062 48.101562 49.789062 47.769531 51.574219 C 46.585938 52.351562 45.894531 52.386719 44.585938 52.402344 C 44.027344 52.417969 44.027344 52.417969 43.457031 52.433594 C 42.460938 52.273438 42.460938 52.273438 41.398438 50.878906 C 41.53125 49.09375 41.53125 49.09375 41.929688 47.394531 C 43.53125 46.34375 44.941406 46.574219 46.707031 46.695312 Z M 46.707031 46.695312 "/>
<path style=" stroke:none;fill-rule:nonzero;fill:rgb(85.882354%,81.960785%,21.176471%);fill-opacity:1;" d="M 27.070312 31.363281 C 27.667969 32.582031 27.667969 32.582031 28.128906 34.152344 C 27.5625 36.460938 27.0625 36.945312 25.476562 38.332031 C 25.34375 40.132812 25.34375 40.132812 25.476562 41.816406 C 25.214844 41.488281 24.953125 41.15625 24.679688 40.816406 C 22.824219 39.292969 21.277344 39.269531 19.109375 39.03125 C 18.933594 40.179688 18.757812 41.332031 18.578125 42.515625 C 18.226562 42.515625 17.875 42.515625 17.515625 42.515625 C 17.816406 38.714844 18.546875 35.609375 19.636719 32.0625 C 20.164062 32.519531 20.6875 32.980469 21.230469 33.453125 C 20.878906 34.835938 20.53125 36.214844 20.167969 37.636719 C 20.933594 37.4375 21.695312 37.234375 22.457031 37.027344 C 22.882812 36.914062 23.308594 36.800781 23.746094 36.683594 C 25.082031 36.28125 25.082031 36.28125 26.539062 34.847656 C 26.925781 33.0625 26.925781 33.0625 27.070312 31.363281 Z M 27.070312 31.363281 "/>
<path style=" stroke:none;fill-rule:nonzero;fill:rgb(58.823532%,60.392159%,2.745098%);fill-opacity:1;" d="M 24.613281 46.566406 C 26.539062 46.695312 26.539062 46.695312 28.128906 48.089844 C 27.667969 51.488281 27.667969 51.488281 27.070312 52.273438 C 24.023438 52.464844 24.023438 52.464844 22.824219 52.273438 C 22.472656 51.8125 22.121094 51.351562 21.761719 50.878906 C 22.144531 46.746094 22.144531 46.746094 24.613281 46.566406 Z M 24.613281 46.566406 "/>
<path style=" stroke:none;fill-rule:nonzero;fill:rgb(60.392159%,74.901962%,21.568628%);fill-opacity:1;" d="M 30.785156 28.574219 C 32.179688 28.421875 33.441406 28.378906 34.832031 28.445312 C 35.207031 28.453125 35.582031 28.464844 35.96875 28.472656 C 36.894531 28.5 37.820312 28.535156 38.746094 28.574219 C 38.746094 29.265625 38.746094 29.957031 38.746094 30.667969 C 36.292969 30.667969 33.84375 30.667969 31.316406 30.667969 C 30.964844 32.507812 30.613281 34.347656 30.253906 36.242188 C 32.003906 36.242188 33.757812 36.242188 35.5625 36.242188 C 35.5625 36.472656 35.5625 36.703125 35.5625 36.9375 C 33.285156 36.9375 31.007812 36.9375 28.660156 36.9375 C 29.589844 30.929688 29.589844 30.929688 30.785156 28.574219 Z M 30.785156 28.574219 "/>
<path style=" stroke:none;fill-rule:nonzero;fill:rgb(98.431373%,97.254902%,94.901961%);fill-opacity:1;" d="M 48.300781 37.636719 C 50.578125 37.636719 52.855469 37.636719 55.199219 37.636719 C 54.851562 39.015625 54.5 40.394531 54.136719 41.816406 C 52.035156 41.816406 49.933594 41.816406 47.769531 41.816406 C 47.945312 40.4375 48.121094 39.058594 48.300781 37.636719 Z M 48.300781 37.636719 "/>
<path style=" stroke:none;fill-rule:nonzero;fill:rgb(97.647059%,89.803922%,60.000002%);fill-opacity:1;" d="M 55.199219 37.636719 C 56.261719 39.03125 56.261719 39.03125 56.261719 41.816406 C 57.664062 41.816406 59.0625 41.816406 60.507812 41.816406 C 60.507812 42.277344 60.507812 42.738281 60.507812 43.210938 C 54.726562 43.558594 54.726562 43.558594 48.832031 43.910156 C 48.832031 43.449219 48.832031 42.988281 48.832031 42.515625 C 48.304688 42.515625 47.78125 42.515625 47.238281 42.515625 C 47.414062 41.824219 47.589844 41.136719 47.769531 40.425781 C 47.769531 40.882812 47.769531 41.34375 47.769531 41.816406 C 49.871094 41.816406 51.972656 41.816406 54.136719 41.816406 C 54.488281 40.4375 54.839844 39.058594 55.199219 37.636719 Z M 55.199219 37.636719 "/>
<path style=" stroke:none;fill-rule:nonzero;fill:rgb(98.823529%,97.647059%,98.039216%);fill-opacity:1;" d="M 12.207031 38.332031 C 13.960938 38.332031 15.710938 38.332031 17.515625 38.332031 C 17.339844 39.484375 17.164062 40.632812 16.984375 41.816406 C 15.234375 41.816406 13.480469 41.816406 11.675781 41.816406 C 11.851562 40.667969 12.027344 39.519531 12.207031 38.332031 Z M 12.207031 38.332031 "/>
<path style=" stroke:none;fill-rule:nonzero;fill:rgb(81.568629%,80.784315%,18.82353%);fill-opacity:1;" d="M 12.738281 31.363281 C 13.265625 31.824219 13.789062 32.285156 14.332031 32.757812 C 13.980469 33.90625 13.628906 35.058594 13.269531 36.242188 C 14.671875 36.242188 16.070312 36.242188 17.515625 36.242188 C 17.515625 36.703125 17.515625 37.164062 17.515625 37.636719 C 17.1875 37.664062 16.863281 37.6875 16.527344 37.714844 C 15.882812 37.785156 15.882812 37.785156 15.226562 37.855469 C 14.800781 37.894531 14.375 37.933594 13.9375 37.976562 C 12.546875 38.390625 12.042969 39 11.144531 40.425781 C 11.402344 37.140625 11.660156 34.382812 12.738281 31.363281 Z M 12.738281 31.363281 "/>
<path style=" stroke:none;fill-rule:nonzero;fill:rgb(89.411765%,91.37255%,81.960785%);fill-opacity:1;" d="M 30.785156 44.605469 C 36.390625 44.605469 41.996094 44.605469 47.769531 44.605469 C 47.242188 44.949219 47.242188 44.949219 46.707031 45.304688 C 46.707031 45.761719 46.707031 46.222656 46.707031 46.695312 C 45.65625 46.695312 44.605469 46.695312 43.523438 46.695312 C 43.523438 46.46875 43.523438 46.238281 43.523438 46 C 39.320312 45.769531 35.117188 45.539062 30.785156 45.304688 C 30.785156 45.074219 30.785156 44.84375 30.785156 44.605469 Z M 30.785156 44.605469 "/>
<path style=" stroke:none;fill-rule:nonzero;fill:rgb(92.941177%,83.529413%,25.098041%);fill-opacity:1;" d="M 28.128906 36.242188 C 31.808594 36.585938 31.808594 36.585938 35.5625 36.9375 C 35.5625 37.167969 35.5625 37.398438 35.5625 37.636719 C 33.460938 37.636719 31.359375 37.636719 29.191406 37.636719 C 29.015625 38.785156 28.84375 39.9375 28.660156 41.121094 C 30.761719 41.121094 32.863281 41.121094 35.03125 41.121094 C 35.03125 41.351562 35.03125 41.582031 35.03125 41.816406 C 32.578125 41.816406 30.125 41.816406 27.601562 41.816406 C 27.601562 37.636719 27.601562 37.636719 28.128906 36.242188 Z M 28.128906 36.242188 "/>
<path style=" stroke:none;fill-rule:nonzero;fill:rgb(98.431373%,97.254902%,94.509804%);fill-opacity:1;" d="M 19.109375 39.03125 C 20.507812 39.03125 21.910156 39.03125 23.355469 39.03125 C 23.703125 39.949219 24.054688 40.871094 24.414062 41.816406 C 22.664062 41.816406 20.914062 41.816406 19.109375 41.816406 C 19.109375 40.898438 19.109375 39.976562 19.109375 39.03125 Z M 19.109375 39.03125 "/>
<path style=" stroke:none;fill-rule:nonzero;fill:rgb(53.725493%,61.176473%,5.098039%);fill-opacity:1;" d="M 46.707031 46.695312 C 46.882812 47.617188 47.058594 48.535156 47.238281 49.484375 C 45.488281 49.484375 43.734375 49.484375 41.929688 49.484375 C 41.929688 48.792969 41.929688 48.105469 41.929688 47.394531 C 43.5 46.363281 44.980469 46.65625 46.707031 46.695312 Z M 46.707031 46.695312 "/>
<path style=" stroke:none;fill-rule:nonzero;fill:rgb(57.254905%,75.294119%,36.078432%);fill-opacity:1;" d="M 49.363281 28.574219 C 50.0625 28.574219 50.761719 28.574219 51.484375 28.574219 C 51.234375 31.402344 51.019531 33.777344 49.890625 36.242188 C 49.71875 36.242188 49.542969 36.242188 49.363281 36.242188 C 49.535156 34.171875 49.710938 32.101562 49.890625 29.96875 C 49.367188 31.578125 48.839844 33.191406 48.300781 34.847656 C 47.949219 34.617188 47.597656 34.386719 47.238281 34.152344 C 47.9375 32.3125 48.640625 30.472656 49.363281 28.574219 Z M 49.363281 28.574219 "/>
<path style=" stroke:none;fill-rule:nonzero;fill:rgb(95.294118%,94.901961%,85.09804%);fill-opacity:1;" d="M 28.660156 31.363281 C 29.011719 31.824219 29.363281 32.285156 29.722656 32.757812 C 28.847656 35.746094 27.972656 38.738281 27.070312 41.816406 C 26.71875 41.816406 26.367188 41.816406 26.007812 41.816406 C 25.65625 40.667969 25.308594 39.519531 24.945312 38.332031 C 25.363281 37.960938 25.777344 37.585938 26.207031 37.199219 C 27.777344 35.335938 28.15625 34.023438 28.660156 31.363281 Z M 28.660156 31.363281 "/>
<path style=" stroke:none;fill-rule:nonzero;fill:rgb(53.725493%,61.176473%,5.882353%);fill-opacity:1;" d="M 22.824219 46.695312 C 26.40625 46.609375 26.40625 46.609375 27.601562 47.394531 C 27.601562 48.082031 27.601562 48.773438 27.601562 49.484375 C 25.671875 49.484375 23.746094 49.484375 21.761719 49.484375 C 22.113281 48.566406 22.460938 47.644531 22.824219 46.695312 Z M 22.824219 46.695312 "/>
<path style=" stroke:none;fill-rule:nonzero;fill:rgb(52.549022%,71.764708%,18.82353%);fill-opacity:1;" d="M 44.683594 28.835938 C 45.175781 28.980469 45.667969 29.125 46.175781 29.273438 C 46.175781 29.960938 46.175781 30.652344 46.175781 31.363281 C 45.652344 31.363281 45.125 31.363281 44.585938 31.363281 C 44.585938 30.902344 44.585938 30.445312 44.585938 29.96875 C 44.058594 30.199219 43.535156 30.429688 42.992188 30.667969 C 42.992188 31.125 42.992188 31.585938 42.992188 32.0625 C 43.519531 32.519531 44.042969 32.980469 44.585938 33.453125 C 43.707031 33.453125 42.832031 33.453125 41.929688 33.453125 C 41.753906 32.304688 41.582031 31.15625 41.398438 29.96875 C 42.992188 28.574219 42.992188 28.574219 44.683594 28.835938 Z M 44.683594 28.835938 "/>
<path style=" stroke:none;fill-rule:nonzero;fill:rgb(59.607846%,73.725492%,18.431373%);fill-opacity:1;" d="M 57.855469 28.574219 C 58.378906 28.574219 58.90625 28.574219 59.445312 28.574219 C 59.207031 29.59375 58.960938 30.609375 58.714844 31.625 C 58.582031 32.191406 58.445312 32.757812 58.304688 33.339844 C 57.855469 34.847656 57.855469 34.847656 56.792969 36.242188 C 56.285156 34.730469 56.183594 33.757812 56.582031 32.183594 C 56.984375 30.96875 57.417969 29.769531 57.855469 28.574219 Z M 57.855469 28.574219 "/>
<path style=" stroke:none;fill-rule:nonzero;fill:rgb(90.196079%,84.705883%,33.333334%);fill-opacity:1;" d="M 46.175781 33.453125 C 46.527344 33.453125 46.878906 33.453125 47.238281 33.453125 C 48.414062 38.515625 48.414062 38.515625 47.835938 41.121094 C 47.636719 41.582031 47.441406 42.042969 47.238281 42.515625 C 46.886719 42.515625 46.539062 42.515625 46.175781 42.515625 C 46.175781 39.523438 46.175781 36.535156 46.175781 33.453125 Z M 46.175781 33.453125 "/>
<path style=" stroke:none;fill-rule:nonzero;fill:rgb(98.431373%,93.725491%,75.686276%);fill-opacity:1;" d="M 46.175781 38.332031 C 46.839844 40.070312 46.589844 40.710938 46.175781 42.515625 C 44.777344 42.515625 43.375 42.515625 41.929688 42.515625 C 42.730469 40.417969 44.074219 40.019531 45.644531 39.03125 C 45.820312 38.800781 45.996094 38.570312 46.175781 38.332031 Z M 46.175781 38.332031 "/>
<path style=" stroke:none;fill-rule:nonzero;fill:rgb(75.686276%,78.039217%,12.54902%);fill-opacity:1;" d="M 44.585938 32.757812 C 45.710938 33.410156 45.710938 33.410156 46.707031 34.152344 C 46.53125 35.761719 46.355469 37.371094 46.175781 39.03125 C 45.828125 39.03125 45.476562 39.03125 45.117188 39.03125 C 45.289062 37.648438 45.464844 36.269531 45.644531 34.847656 C 44.945312 34.386719 44.246094 33.929688 43.523438 33.453125 C 43.875 33.222656 44.222656 32.996094 44.585938 32.757812 Z M 44.585938 32.757812 "/>
<path style=" stroke:none;fill-rule:nonzero;fill:rgb(50.588238%,69.411767%,10.196079%);fill-opacity:1;" d="M 26.539062 29.273438 C 27.238281 29.734375 27.941406 30.191406 28.660156 30.667969 C 28.660156 31.816406 28.660156 32.964844 28.660156 34.152344 C 28.3125 34.152344 27.960938 34.152344 27.601562 34.152344 C 27.601562 33.230469 27.601562 32.3125 27.601562 31.363281 C 27.074219 31.132812 26.550781 30.902344 26.007812 30.667969 C 26.183594 30.207031 26.359375 29.746094 26.539062 29.273438 Z M 26.539062 29.273438 "/>
<path style=" stroke:none;fill-rule:nonzero;fill:rgb(88.627452%,91.764706%,80.000001%);fill-opacity:1;" d="M 42.992188 29.96875 C 43.519531 29.96875 44.042969 29.96875 44.585938 29.96875 C 44.585938 30.429688 44.585938 30.890625 44.585938 31.363281 C 44.933594 31.59375 45.285156 31.824219 45.644531 32.0625 C 44.769531 32.289062 43.894531 32.519531 42.992188 32.757812 C 42.992188 31.835938 42.992188 30.917969 42.992188 29.96875 Z M 42.992188 29.96875 "/>
</g>
</svg>
